<svg width="880" height="144" viewBox="0 0 880 144" fill="none" xmlns="http://www.w3.org/2000/svg">
<g clip-path="url(#clip0_1_5537)">
<path d="M206.144 30.8598C196.593 30.8598 189.539 35.4153 186.747 38.2073V0H171.317V110.213H186.747V63.189C186.747 53.0494 194.682 45.7018 204.675 45.7018C214.668 45.7018 222.162 53.0494 222.162 63.189V110.213H237.592V62.3073C237.592 44.6732 225.395 30.8598 206.144 30.8598Z" fill="#1C1C1C"/>
<path d="M286.968 30.8597C265.219 30.8597 246.409 47.0244 246.409 72.0061C246.409 94.4896 263.749 112.124 287.115 112.124C299.459 112.124 310.333 107.862 317.387 99.7799L306.806 89.6402C303.279 93.7549 296.226 97.7226 287.115 97.7226C273.889 97.7226 264.484 89.3464 262.28 77.5902H326.204V71.2713C326.204 48.4939 310.921 30.8597 286.968 30.8597ZM262.721 64.0707C265.66 51.7268 275.652 45.114 286.968 45.114C299.165 45.114 309.451 53.1963 310.186 64.0707H262.721Z" fill="#1C1C1C"/>
<path d="M350.45 0H335.021V110.213H350.45V0Z" fill="#1C1C1C"/>
<path d="M382.045 0H366.615V110.213H382.045V0Z" fill="#1C1C1C"/>
<path d="M433.478 30.8597C410.407 30.8597 392.332 47.9061 392.332 71.4183C392.332 94.9305 410.113 112.124 433.331 112.124C456.549 112.124 474.477 94.9305 474.477 71.4183C474.477 47.9061 456.696 30.8597 433.478 30.8597ZM433.331 97.2817C419.077 97.2817 407.908 86.8482 407.908 71.4183C407.908 55.9884 419.077 45.7018 433.331 45.7018C447.585 45.7018 458.754 56.1354 458.754 71.4183C458.754 86.7012 447.438 97.2817 433.331 97.2817Z" fill="#1C1C1C"/>
<path d="M509.746 63.9238L504.455 61.8665C499.753 59.9561 496.079 57.311 496.226 52.9024C496.226 48.3469 500.047 44.9671 505.043 44.9671C508.717 44.9671 511.656 46.5835 513.419 48.6408L523.118 38.3543C520.326 35.2683 514.154 30.8597 504.896 30.8597C491.23 30.8597 481.237 40.2646 481.237 52.9024C481.237 64.8055 488.878 71.2713 498.724 75.0921L504.161 77.2963C509.599 79.3537 513.125 82.4396 513.125 87.5829C513.125 93.314 508.57 97.7226 501.369 97.7226C495.197 97.7226 490.495 94.1957 487.997 90.8159L478.739 101.69C483.882 107.715 491.964 112.124 501.81 112.124C518.563 112.124 528.555 100.809 528.555 87.5829C528.555 75.9738 521.796 68.7732 509.746 63.9238Z" fill="#1C1C1C"/>
<path d="M579.535 30.8597C569.836 30.8597 561.166 34.0927 554.259 39.6768V32.7701H538.683V144.012H554.259V103.454C561.019 108.891 569.836 112.124 579.388 112.124C602.459 112.124 620.388 95.0774 620.388 71.5652C620.388 48.053 602.606 30.8597 579.535 30.8597ZM579.535 97.2817C565.575 97.2817 554.259 86.7012 554.259 71.5652C554.259 56.4293 565.575 45.7018 579.535 45.7018C593.495 45.7018 604.811 55.9884 604.811 71.5652C604.811 87.1421 593.495 97.2817 579.535 97.2817Z" fill="#1C1C1C"/>
<path d="M690.924 38.9421C684.165 33.7988 675.495 30.8597 665.796 30.8597C642.724 30.8597 624.796 47.9061 624.796 71.4183C624.796 94.9305 642.577 112.124 665.649 112.124C675.348 112.124 684.018 109.185 690.924 103.895V110.213H706.501V32.7701H690.924V38.9421ZM665.649 97.2817C651.688 97.2817 640.373 86.9951 640.373 71.4183C640.373 55.8415 651.688 45.7018 665.649 45.7018C679.609 45.7018 690.924 56.2823 690.924 71.4183C690.924 86.5543 679.609 97.2817 665.649 97.2817Z" fill="#1C1C1C"/>
<path d="M759.11 45.7018C767.339 45.7018 774.393 49.3756 778.507 54.3719L789.235 43.9384C782.034 35.5622 771.307 30.8597 759.11 30.8597C735.891 30.8597 718.11 48.2 718.11 71.4183C718.11 94.6366 735.891 112.124 759.11 112.124C771.307 112.124 782.034 107.421 789.235 99.0451L778.507 88.6116C774.393 93.6079 767.339 97.2817 759.11 97.2817C744.855 97.2817 733.834 86.8482 733.834 71.4183C733.834 55.9884 744.855 45.7018 759.11 45.7018Z" fill="#1C1C1C"/>
<path d="M874.026 71.2713C874.026 48.4939 858.743 30.8597 834.79 30.8597C813.041 30.8597 794.231 47.0244 794.231 72.0061C794.231 94.4896 811.571 112.124 834.936 112.124C847.28 112.124 858.155 107.862 865.208 99.7799L854.628 89.6402C851.101 93.7549 844.047 97.7226 834.936 97.7226C821.711 97.7226 812.306 89.3464 810.102 77.5902H874.026V71.2713ZM810.543 64.0707C813.482 51.7268 823.474 45.114 834.79 45.114C846.986 45.114 857.273 53.1963 858.008 64.0707H810.543Z" fill="#1C1C1C"/>
<path d="M10.7617 96.4996L19.7992 109.603L58.6556 82.7719L97.5119 109.603L106.562 96.4996L58.6556 63.4355L10.7617 96.4996Z" fill="#1C1C1C"/>
<path d="M58.6555 14.7947C26.5099 14.7947 0.352539 40.9521 0.352539 73.1099H16.2723C16.2723 49.7324 35.2902 30.7267 58.6555 30.7267C82.0207 30.7267 101.039 49.7447 101.039 73.1099H116.958C116.958 40.9643 90.801 14.807 58.6555 14.807V14.7947Z" fill="#1C1C1C"/>
</g>
<defs>
<clipPath id="clip0_1_5537">
<rect width="879.295" height="144" fill="white" transform="translate(0.352539)"/>
</clipPath>
</defs>
</svg>
